<?xml version="1.0" standalone="no"?><!DOCTYPE svg PUBLIC "-//W3C//DTD SVG 1.1//EN"
        "http://www.w3.org/Graphics/SVG/1.1/DTD/svg11.dtd">
<svg t="1596969931898" class="icon" viewBox="0 0 1327 1024" version="1.1" xmlns="http://www.w3.org/2000/svg" p-id="2734"
     xmlns:xlink="http://www.w3.org/1999/xlink" width="48px" height="36px">
    <defs>
        <style type="text/css"></style>
    </defs>
    <path d="M771.834776 871.340408a33.290449 33.290449 0 0 0 33.311346-33.311347 33.290449 33.290449 0 0 0-33.311346-33.321796h-636.969796c-37.637224 0-68.513959-30.61551-68.51396-68.545306V125.575837c0-6.238041 1.358367-12.193959 2.97796-17.878204l471.499755 409.6a33.196408 33.196408 0 0 0 21.660734 8.118857c7.857633 0 15.443592-2.706286 21.671184-8.118857l475.825633-413.121306c2.716735 6.770939 4.336327 13.813551 4.336326 21.39951v237.578449a33.290449 33.290449 0 0 0 33.311347 33.321796 33.290449 33.290449 0 0 0 33.311347-33.332245V125.575837c0-68.545306-55.797551-124.342857-124.301061-124.342857H124.31151c-31.148408 0-59.590531 11.640163-81.251265 30.61551-0.543347 0.532898-1.086694 1.076245-1.891265 1.619592C15.986939 56.21551 0 88.993959 0 125.565388V736.444082c0 74.219102 60.395102 134.896327 134.86498 134.896326h636.969796zM562.761143 448.20898L124.31151 67.604898h876.638041L562.761143 448.198531z m370.761143 253.293714h262.426122V632.685714c0-54.449633-44.146939-98.60702-98.586122-98.60702-40.886857 0-76.90449 24.659592-91.804735 62.850612a33.154612 33.154612 0 0 1-43.060245 18.693225 33.17551 33.17551 0 0 1-18.682775-43.081143c24.910367-63.655184 85.033796-104.834612 153.547755-104.834612 91.000163 0 164.937143 73.957878 164.937143 164.978938v69.078204c35.474286 0.543347 64.177633 29.528816 64.177632 65.013551v190.171429a65.306122 65.306122 0 0 1-65.264326 65.285224H933.511837a65.306122 65.306122 0 0 1-65.274776-65.285224v-190.171429a65.306122 65.306122 0 0 1 65.274776-65.285224z m326.603755 254.108735V767.864163H934.870204v187.736817h325.255837z"
          fill="#8a8a8a" p-id="2735"></path>
</svg>
