<?xml version="1.0" standalone="no"?><!DOCTYPE svg PUBLIC "-//W3C//DTD SVG 1.1//EN"
        "http://www.w3.org/Graphics/SVG/1.1/DTD/svg11.dtd">
<svg t="1597043027846" class="icon" viewBox="0 0 1024 1024" version="1.1" xmlns="http://www.w3.org/2000/svg" p-id="9753"
     xmlns:xlink="http://www.w3.org/1999/xlink" width="24" height="24">
    <defs>
        <style type="text/css"></style>
    </defs>
    <path d="M327.789714 384V256c0-94.256762 82.468571-170.666667 184.210286-170.666667s184.210286 76.409905 184.210286 170.666667v128h92.111238V256C788.321524 114.663619 664.551619 0 512 0 359.448381 0 235.678476 114.663619 235.678476 256v128h92.111238zM834.364952 426.666667H189.635048C138.825143 426.800762 97.670095 464.932571 97.52381 512v426.666667c0.146286 47.067429 41.301333 85.199238 92.111238 85.333333h644.729904c50.809905-0.134095 91.964952-38.265905 92.111238-85.333333V512c-0.146286-47.067429-41.301333-85.199238-92.111238-85.333333zM558.055619 803.376762V938.666667h-92.111238V803.376762c-63.439238-20.784762-101.497905-80.88381-90.112-142.32381 11.373714-61.44 68.87619-106.361905 136.167619-106.361904s124.793905 44.909714 136.167619 106.361904c11.385905 61.44-26.672762 121.539048-90.112 142.32381z"
          fill="#ffffff" p-id="9754"></path>
</svg>
