<?xml version="1.0" encoding="UTF-8"?>
<svg width="26px" height="21px" viewBox="0 0 26 21" version="1.1" xmlns="http://www.w3.org/2000/svg" xmlns:xlink="http://www.w3.org/1999/xlink">
    <!-- Generator: Sketch 47.1 (45422) - http://www.bohemiancoding.com/sketch -->
    <title>weibo</title>
    <desc>Created with Sketch.</desc>
    <defs></defs>
    <g id="Page-1" stroke="none" stroke-width="1" fill="none" fill-rule="evenodd" opacity="0.4">
        <g id="页脚" transform="translate(-56.000000, -21.000000)" fill-rule="nonzero" fill="#FFFFFF">
            <g id="weibo" transform="translate(56.000000, 21.000000)">
                <path d="M19.0932422,9.43998072 C19.5079727,8.39979759 19.550959,7.50256627 19.1011387,6.86257229 C18.2579922,5.66235904 15.9506699,5.72690241 13.3057285,6.83031325 C13.3057285,6.82894699 12.4753027,7.1924747 12.6875937,6.53575663 C13.0944023,5.23256747 13.0332871,4.1412506 12.4001211,3.51089639 C10.9654238,2.08011325 7.14977148,3.56506627 3.87725,6.82454458 C1.4270293,9.26649036 0.00408789062,11.8546771 0.00408789062,14.0927711 C0.00408789062,18.3735831 5.51299023,20.9759639 10.9025566,20.9759639 C17.9672188,20.9759639 22.6668965,16.8855434 22.6668965,13.6381843 C22.6668965,11.6761771 21.0085586,10.5627976 19.5183574,10.1020627 C19.1526055,9.99311566 18.9015684,9.9183759 19.0932168,9.43998072 L19.0932422,9.43998072 Z M2.62475586,15.1141301 C2.34556055,12.3009398 5.6065293,9.67725542 9.90633008,9.25381446 C14.2070957,8.82958916 17.9194336,10.7670289 18.1986035,13.5794096 C18.4772148,16.3937133 15.2176172,19.0181819 10.9168262,19.4418253 C6.61666992,19.8643048 2.90430664,17.9278518 2.62475586,15.1141301 Z M11.346791,11.4189145 C9.30033203,10.8880699 6.9872207,11.9044446 6.09837109,13.701412 C5.19314453,15.5339277 6.06848633,17.5681952 8.13579102,18.2333386 C10.2776934,18.9213542 12.8017246,17.8667494 13.6797832,15.8889795 C14.5452988,13.9552084 13.4644199,11.9641807 11.346791,11.4189145 Z M9.78389648,16.0989795 C9.36799805,16.7601 8.47724414,17.0498241 7.80606836,16.7447169 C7.14494727,16.4449988 6.95002344,15.6765 7.36609961,15.0316988 C7.7769707,14.3898072 8.63766211,14.103347 9.30381055,14.3817108 C9.97729687,14.6678169 10.1926602,15.4307494 9.78389648,16.0989795 Z M11.1541777,14.346188 C11.0037891,14.6028687 10.6711973,14.7258325 10.410918,14.6190108 C10.1544727,14.514112 10.0742637,14.2274494 10.2198281,13.9753735 C10.3698359,13.724841 10.6895293,13.6026614 10.9449844,13.7033349 C11.2047051,13.7982145 11.2978379,14.0883434 11.1542031,14.346188 L11.1541777,14.346188 Z M24.2097832,2.26840482 C25.9168965,4.15126988 26.3767461,6.71810241 25.6483145,8.97061807 C25.6481367,8.97178193 25.6481367,8.97367952 25.6481367,8.97446386 C25.478832,9.49435301 24.9181562,9.77947229 24.3960234,9.61099157 C23.8719609,9.44248554 23.5858594,8.88474578 23.7551387,8.36290843 L23.7549355,8.36232651 C24.273793,6.76172169 23.9448574,4.93532892 22.7332676,3.59676867 C21.5197227,2.25820843 19.7316387,1.74639036 18.0790645,2.0958759 C17.5417227,2.21056627 17.0130391,1.86839277 16.8989082,1.3335 C16.7833809,0.798809639 17.1264082,0.271608434 17.6633691,0.1575 L17.6641309,0.1575 C19.9872969,-0.334557831 22.5040156,0.383616867 24.2097832,2.26837952 L24.2097832,2.26840482 Z M21.5895215,4.62445301 L21.5895215,4.6242759 C22.421877,5.54227952 22.6441719,6.79188072 22.2884492,7.8897 C22.1432656,8.33813855 21.6608691,8.58290241 21.2104648,8.43936867 C20.7604414,8.29373494 20.5144316,7.81245542 20.6594121,7.36482651 L20.6588281,7.36482651 C20.8337188,6.82818795 20.724209,6.21645542 20.317959,5.76725783 C19.9115059,5.31960361 19.3117031,5.14975663 18.7585176,5.26654699 L18.7585176,5.26561084 C18.2971445,5.36590482 17.8422969,5.07041205 17.7431973,4.61122048 C17.6439199,4.14972651 17.9387051,3.6959241 18.4014492,3.59773012 C19.5334141,3.3579506 20.7592988,3.70685422 21.5895215,4.62445301 L21.5895215,4.62445301 Z" id="Shape"></path>
            </g>
        </g>
    </g>
</svg>