<?xml version="1.0" encoding="UTF-8"?>
<svg width="21px" height="21px" viewBox="0 0 21 21" version="1.1" xmlns="http://www.w3.org/2000/svg" xmlns:xlink="http://www.w3.org/1999/xlink">
    <!-- Generator: Sketch 47.1 (45422) - http://www.bohemiancoding.com/sketch -->
    <title>知乎</title>
    <desc>Created with Sketch.</desc>
    <defs></defs>
    <g id="Page-1" stroke="none" stroke-width="1" fill="none" fill-rule="evenodd" opacity="0.4">
        <g id="页脚" transform="translate(-114.000000, -21.000000)" fill-rule="nonzero" fill="#FFFFFF">
            <g id="知乎" transform="translate(114.000000, 21.000000)">
                <path d="M6.77858461,11.7229 L11.2909785,11.7229 C11.2909785,10.6449 10.7912862,10.0135 10.7912862,10.0135 L6.8743877,10.0135 C6.96743385,8.06119999 7.05083077,5.55589999 7.08115693,4.62489999 L10.8064492,4.62489999 C10.8064492,4.62489999 10.7857723,3.024 10.3722338,3.024 L3.82247385,3.024 C3.82247385,3.024 4.21671384,0.9303 4.74190769,0.00560000684 C4.74190769,0.00560000684 2.78655999,-0.101499993 2.11938462,2.54660001 C1.45220924,5.19470001 0.452135391,6.7956 0.346683084,7.08819999 C0.240541552,7.38079999 0.922190769,7.22679999 1.21028922,7.08819999 C1.49838768,6.94959999 2.8024123,6.4722 3.18148924,4.62489999 L5.20576001,4.62489999 C5.23332923,5.796 5.31328001,9.38419999 5.2884677,10.0135 L1.11931076,10.0135 C0.527950763,10.4447 0.331519993,11.7229 0.331519993,11.7229 L5.09617231,11.7229 C4.89698463,13.0592 4.54823385,14.7819 4.06025847,15.6947 C3.28763077,17.143 2.87822769,18.4667 0.0895999933,20.7445 C0.0895999933,20.7445 -0.365292314,21.0833 1.04418462,20.9601 C2.45435077,20.8369 3.78801231,20.4673 4.71295999,18.5892 C5.25512127,17.4691606 5.7115916,16.3083987 6.07832616,15.1172 L6.07694769,15.1221 L10.0034954,19.7134 C10.0034954,19.7134 10.51904,18.4814 10.1399631,17.1269 L7.22934153,13.8159 L6.24374155,14.5565 L6.2430523,14.56 C6.51667691,13.5856 6.71310768,12.6224 6.77444922,11.7845 L6.77927385,11.7229 L6.77858461,11.7229 Z M12.2310892,2.68520001 L12.2310892,18.5738 L13.8755939,18.5738 L14.5496615,20.4869 L17.40032,18.5738 L20.99328,18.5738 L20.99328,2.68520001 L12.2310892,2.68520001 Z M19.3005292,16.8651 L17.4327138,16.8651 L15.1038031,18.4275 L14.5531077,16.8651 L13.9720861,16.8651 L13.9720861,4.4583 L19.29984,4.4583 L19.29984,16.8651 L19.3005292,16.8651 Z" id="Shape"></path>
            </g>
        </g>
    </g>
</svg>